<svg width="1143" height="263" viewBox="0 0 1143 263" fill="none" xmlns="http://www.w3.org/2000/svg">
<path d="M88.54 167.329C89.2128 167.329 89.7534 167.871 89.7734 168.538C90.0837 178.999 95.0499 200.906 113.079 212.786C122.228 218.815 130.056 224.712 135.986 229.165V180.488H160.096V230.185C166.667 225.949 175.257 219.933 184.73 212.793C203.232 198.848 203.816 179.249 206.758 168.21C206.899 167.682 207.378 167.329 207.919 167.329H231.143C231.812 167.329 232.363 167.865 232.349 168.542C232.163 177.272 229.675 188.455 225.344 199.042C221.013 209.627 214.832 219.637 207.246 226.005C192.005 238.798 161.422 256.705 148.194 262.72C147.827 262.887 147.418 262.85 147.079 262.645C127.996 251.064 107.732 240.496 92.1797 226.36C76.6157 212.214 65.7533 194.482 65.4648 168.563C65.4576 167.893 66.001 167.329 66.6758 167.329H88.54ZM293.629 0.225586C294.797 -0.455863 296.238 0.501514 296.062 1.8418L293.799 19.041C293.225 23.4012 290.659 27.2485 286.854 29.4541L232.702 60.8467C232.344 61.0544 232.122 61.4365 232.122 61.8506V73.625C232.122 74.5304 233.112 75.0884 233.887 74.6191L283.02 44.834C284.182 44.1298 285.643 45.0764 285.477 46.4248L283.247 64.4053C282.703 68.7893 280.146 72.6696 276.332 74.8984L232.692 100.4C232.562 100.477 232.449 100.577 232.359 100.693V113.731C232.712 114.107 233.301 114.239 233.805 113.938L273.053 90.4453C274.193 89.763 275.627 90.6618 275.509 91.9854L274.022 108.585C273.63 112.973 271.22 116.928 267.501 119.289L232.359 141.594V143.057C232.359 143.729 231.815 144.273 231.143 144.273H230.254C230.067 144.347 229.866 144.389 229.658 144.389L218.817 144.39H212.326C212.114 144.39 211.912 144.348 211.726 144.273H208.177C207.505 144.273 206.96 143.729 206.96 143.057V100.501C206.96 100.136 206.732 99.81 206.39 99.6846L161.126 83.1035C160.559 82.8959 159.957 83.3161 159.957 83.9199V143.532C159.957 143.945 159.747 144.33 159.4 144.554L148.744 151.44C148.342 151.7 147.825 151.7 147.423 151.44L136.766 144.554C136.419 144.33 136.21 143.945 136.21 143.532V83.9258C136.21 83.3204 135.606 82.9 135.038 83.1104L90.3242 99.6826C89.9835 99.809 89.757 100.135 89.7568 100.498V143.057C89.7568 143.729 89.2122 144.273 88.54 144.273H84.3506C84.1646 144.347 83.9623 144.39 83.75 144.39H77.2588L66.418 144.389C65.8259 144.388 65.2803 144.067 64.9941 143.549L64.166 142.049C64.0718 141.878 63.9361 141.733 63.7715 141.629L28.5752 119.289C24.8562 116.928 22.4462 112.972 22.0537 108.585L20.5684 91.9854C20.4502 90.6617 21.8841 89.7627 23.0244 90.4453L62.2725 113.938C63.0495 114.402 64.0358 113.839 64.0303 112.934L63.959 101.396C63.9563 100.986 63.7376 100.607 63.3838 100.4L19.7441 74.8984C15.9301 72.6696 13.3739 68.7892 12.8301 64.4053L10.5996 46.4248C10.4327 45.0764 11.8947 44.1298 13.0566 44.834L62.1895 74.6191C62.9637 75.0885 63.9541 74.5304 63.9541 73.625L63.9551 61.8506C63.9549 61.4366 63.7331 61.0544 63.375 60.8467L9.22266 29.4541C5.41786 27.2485 2.85225 23.4013 2.27832 19.041L0.0146484 1.8418C-0.16135 0.501651 1.27973 -0.455529 2.44727 0.225586L81.3311 46.2637C84.2793 47.9844 86.0809 51.1518 86.0547 54.5654L85.8975 74.9746L148.909 52.3789C149.176 52.2833 149.468 52.2845 149.734 52.3809L210.173 74.2686L210.021 54.5654C209.995 51.152 211.797 47.9845 214.745 46.2637L293.629 0.225586Z" fill="url(#paint0_linear_2037_2)"/>
<path d="M329.719 46.565L353.576 40.1276V84.8108H406.085V42.6521H429.941V143H406.085V106.143H353.576V143H329.719V46.565ZM491.331 103.618V121.668H564.541L558.104 143H467.475V42.6521H564.541L558.104 63.9839H491.331V82.2863H553.56V103.618H491.331ZM596.9 78.7521L620.756 72.3147V89.986C620.756 89.986 635.019 89.986 663.546 89.986C668.258 89.986 671.54 87.6298 673.391 82.9175C674.149 80.982 674.527 78.9624 674.527 76.8587C674.527 71.7256 672.802 67.981 669.352 65.6248C667.585 64.5309 665.65 63.9839 663.546 63.9839H596.9L603.337 42.6521H663.798C676.168 42.6521 685.761 47.154 692.577 56.158C697.374 62.5534 699.772 69.8323 699.772 77.9947C699.772 87.756 696.49 95.7923 689.927 102.103C686.477 105.385 682.437 107.784 677.809 109.298L702.675 143H674.527L652.691 111.318H620.756V143H596.9V78.7521ZM832.353 42.6521H856.209V143H832.353V85.3157L801.806 139.718H785.776L755.23 87.5877V143H731.374V46.565L755.23 40.1276L793.981 111.065L832.353 42.6521ZM917.473 103.618V121.668H990.683L984.245 143H893.617V42.6521H990.683L984.245 63.9839H917.473V82.2863H979.701V103.618H917.473ZM1054.98 103.492C1041.51 103.492 1031.5 99.2003 1024.93 90.6171C1020.98 85.484 1019 79.6777 1019 73.1982C1019 64.4467 1022.28 57.1678 1028.85 51.3615C1035.5 45.5552 1044.2 42.6521 1054.98 42.6521H1123.14L1116.7 63.9839H1055.23C1050.1 63.9839 1046.69 65.8772 1045 69.664C1044.5 70.8421 1044.25 72.0201 1044.25 73.1982C1044.25 76.8166 1046.01 79.4673 1049.55 81.1503C1051.23 81.9077 1053.12 82.2863 1055.23 82.2863H1089.81C1102.69 82.2863 1112.45 86.4097 1119.1 94.6563C1123.31 99.9577 1125.41 105.974 1125.41 112.706C1125.41 121.458 1122.13 128.695 1115.56 134.417C1109 140.139 1100.42 143 1089.81 143H1019L1025.44 121.668H1089.56C1094.78 121.668 1098.19 119.817 1099.79 116.114C1100.29 115.02 1100.54 113.884 1100.54 112.706C1100.54 109.088 1098.86 106.437 1095.49 104.754C1093.73 103.913 1091.75 103.492 1089.56 103.492H1054.98Z" fill="white"/>
<path d="M368.001 180.85C362.495 177.093 356.445 175.215 349.85 175.215C345.233 175.215 341.477 176.205 338.581 178.183C335.714 180.133 334.28 182.771 334.28 186.097C334.28 188.907 335.412 191.101 337.678 192.678C339.943 194.255 343.441 195.316 348.173 195.861L353.893 196.549C356.531 196.893 358.911 197.424 361.033 198.14C363.184 198.829 365.162 199.775 366.969 200.979C368.775 202.184 370.18 203.761 371.184 205.71C372.187 207.632 372.689 209.854 372.689 212.377C372.689 216.191 371.585 219.503 369.377 222.313C367.198 225.094 364.331 227.159 360.775 228.507C357.248 229.826 353.277 230.485 348.861 230.485C344.502 230.485 340.158 229.783 335.828 228.378C331.527 226.973 327.986 225.094 325.204 222.743L328.989 217.238C331.14 219.101 334.05 220.693 337.721 222.012C341.391 223.302 345.09 223.947 348.818 223.947C353.692 223.947 357.693 222.987 360.818 221.066C363.944 219.144 365.506 216.449 365.506 212.979C365.506 210.112 364.288 207.89 361.85 206.313C359.442 204.736 355.8 203.675 350.925 203.13L344.861 202.442C339.413 201.811 335.083 200.191 331.871 197.581C328.688 194.972 327.097 191.287 327.097 186.527C327.097 182.828 328.129 179.617 330.194 176.893C332.258 174.14 334.997 172.09 338.409 170.742C341.821 169.366 345.649 168.677 349.893 168.677C358.151 168.677 365.363 170.871 371.528 175.258L368.001 180.85ZM440.979 229.668H398.612V169.452H440.592V175.946H405.537V196.119H439.517V202.571H405.537V223.173H440.979V229.668ZM496.066 168.591C501.313 168.591 506.116 169.71 510.475 171.946C514.862 174.183 518.246 177.222 520.626 181.065L514.862 184.936C512.826 181.925 510.16 179.559 506.862 177.839C503.593 176.118 499.994 175.258 496.066 175.258C492.711 175.258 489.571 175.86 486.646 177.065C483.722 178.24 481.198 179.875 479.076 181.968C476.955 184.061 475.277 186.628 474.044 189.667C472.84 192.707 472.238 196.004 472.238 199.56C472.238 203.115 472.84 206.413 474.044 209.453C475.277 212.492 476.955 215.058 479.076 217.152C481.198 219.245 483.722 220.894 486.646 222.098C489.571 223.274 492.711 223.861 496.066 223.861C500.052 223.861 503.665 223.03 506.905 221.367C510.145 219.675 512.798 217.295 514.862 214.227L520.454 218.356C517.902 222.141 514.489 225.123 510.217 227.302C505.944 229.453 501.227 230.528 496.066 230.528C491.65 230.528 487.521 229.754 483.679 228.206C479.836 226.657 476.539 224.535 473.786 221.84C471.062 219.116 468.911 215.833 467.334 211.99C465.757 208.148 464.969 204.004 464.969 199.56C464.969 195.115 465.757 190.972 467.334 187.129C468.911 183.287 471.062 180.018 473.786 177.323C476.539 174.599 479.836 172.463 483.679 170.914C487.521 169.366 491.65 168.591 496.066 168.591ZM595.006 206.098C595.006 210.083 594.36 213.653 593.07 216.807C591.78 219.933 590.002 222.485 587.737 224.464C585.471 226.413 582.848 227.904 579.865 228.937C576.912 229.969 573.686 230.485 570.188 230.485C566.69 230.485 563.449 229.969 560.467 228.937C557.514 227.904 554.904 226.413 552.639 224.464C550.374 222.485 548.596 219.933 547.306 216.807C546.044 213.653 545.413 210.083 545.413 206.098V169.452H552.295V205.581C552.295 211.632 553.929 216.191 557.198 219.259C560.467 222.327 564.797 223.861 570.188 223.861C575.579 223.861 579.908 222.327 583.177 219.259C586.446 216.191 588.081 211.632 588.081 205.581V169.452H595.006V206.098ZM647.203 169.452C653.971 169.452 659.161 170.928 662.774 173.882C666.415 176.807 668.236 180.993 668.236 186.441C668.236 191.66 666.344 195.803 662.559 198.872C658.802 201.94 653.713 203.474 647.29 203.474H646.3L667.935 229.668H659.333L638.128 203.474H630.515V229.668H623.59V169.452H647.203ZM630.515 175.946V197.194H647.117C651.734 197.194 655.204 196.291 657.526 194.484C659.878 192.649 661.053 189.968 661.053 186.441C661.053 182.972 659.863 180.362 657.483 178.613C655.132 176.835 651.677 175.946 647.117 175.946H630.515ZM700.775 229.668H693.85V169.452H700.775V229.668ZM771.893 175.989H750.989V229.668H744.107V175.989H723.204V169.452H771.893V175.989ZM818.39 204.42V229.668H811.509V204.334L787.68 169.452H795.938L814.993 198.011L834.047 169.452H842.09L818.39 204.42Z" fill="white"/>
<defs>
<linearGradient id="paint0_linear_2037_2" x1="52.3238" y1="6.79719" x2="215.508" y2="288.589" gradientUnits="userSpaceOnUse">
<stop stop-color="#03B7FA"/>
<stop offset="0.5" stop-color="#2138FF"/>
<stop offset="1" stop-color="#6729FD"/>
</linearGradient>
</defs>
</svg>
