<svg width="1200" height="630" viewBox="0 0 1200 630" xmlns="http://www.w3.org/2000/svg">
  <defs>
    <linearGradient id="bg" x1="0%" y1="0%" x2="100%" y2="100%">
      <stop offset="0%" style="stop-color:#0f172a;stop-opacity:1" />
      <stop offset="100%" style="stop-color:#1e293b;stop-opacity:1" />
    </linearGradient>
    <linearGradient id="accent" x1="0%" y1="0%" x2="100%" y2="100%">
      <stop offset="0%" style="stop-color:#10b981;stop-opacity:1" />
      <stop offset="100%" style="stop-color:#059669;stop-opacity:1" />
    </linearGradient>
  </defs>
  
  <!-- Background -->
  <rect width="1200" height="630" fill="url(#bg)"/>
  
  <!-- Security Shield Icon -->
  <g transform="translate(100, 165)">
    <path d="M100 20L180 60V120C180 180 140 220 100 240C60 220 20 180 20 120V60L100 20Z" fill="url(#accent)" opacity="0.9"/>
    <path d="M80 140L60 120L70 110L80 120L130 70L140 80L80 140Z" fill="white"/>
  </g>
  
  <!-- Text -->
  <text x="600" y="200" text-anchor="middle" font-family="Arial, sans-serif" font-size="48" font-weight="bold" fill="white">
    Hermes Security
  </text>
  <text x="600" y="260" text-anchor="middle" font-family="Arial, sans-serif" font-size="24" fill="#94a3b8">
    AI-Driven Penetration Testing with Human Oversight
  </text>
  <text x="600" y="300" text-anchor="middle" font-family="Arial, sans-serif" font-size="18" fill="#64748b">
    Enterprise-grade cybersecurity for European businesses
  </text>
  
  <!-- Decorative elements -->
  <circle cx="1000" cy="150" r="3" fill="url(#accent)" opacity="0.6"/>
  <circle cx="1050" cy="200" r="2" fill="url(#accent)" opacity="0.4"/>
  <circle cx="950" cy="250" r="4" fill="url(#accent)" opacity="0.3"/>
</svg>
